<?xml version="1.0" encoding="UTF-8" standalone="no"?>
<svg
   xmlns:dc="http://purl.org/dc/elements/1.1/"
   xmlns:cc="http://creativecommons.org/ns#"
   xmlns:rdf="http://www.w3.org/1999/02/22-rdf-syntax-ns#"
   xmlns:svg="http://www.w3.org/2000/svg"
   xmlns="http://www.w3.org/2000/svg"
   xmlns:sodipodi="http://sodipodi.sourceforge.net/DTD/sodipodi-0.dtd"
   xmlns:inkscape="http://www.inkscape.org/namespaces/inkscape"
   width="561.59637"
   height="561.59637"
   version="1.1"
   id="svg5469"
   sodipodi:docname="it-works-logo.svg"
   inkscape:version="0.92.2 5c3e80d, 2017-08-06"
   inkscape:export-filename="/Users/ryan/Workspace/ryan-ju.github.io/assets/images/it-works-logo-48x48.png"
   inkscape:export-xdpi="8.2433853"
   inkscape:export-ydpi="8.2433853">
  <metadata
     id="metadata5475">
    <rdf:RDF>
      <cc:Work
         rdf:about="">
        <dc:format>image/svg+xml</dc:format>
        <dc:type
           rdf:resource="http://purl.org/dc/dcmitype/StillImage" />
        <dc:title></dc:title>
      </cc:Work>
    </rdf:RDF>
  </metadata>
  <defs
     id="defs5473" />
  <sodipodi:namedview
     pagecolor="#ffffff"
     bordercolor="#666666"
     borderopacity="1"
     objecttolerance="10"
     gridtolerance="10"
     guidetolerance="10"
     inkscape:pageopacity="0"
     inkscape:pageshadow="2"
     inkscape:window-width="1227"
     inkscape:window-height="694"
     id="namedview5471"
     showgrid="false"
     inkscape:pagecheckerboard="true"
     fit-margin-top="0"
     fit-margin-left="0"
     fit-margin-right="0"
     fit-margin-bottom="0"
     inkscape:zoom="1"
     inkscape:cx="368.54553"
     inkscape:cy="293.95448"
     inkscape:window-x="23"
     inkscape:window-y="10"
     inkscape:window-maximized="0"
     inkscape:current-layer="layer2" />
  <path
     style="fill:#e06911;stroke:#e06911;stroke-width:1.50999999"
     d="m 530.76033,239.06207 -36.94922,69.2793 53.6875,4.05273 z"
     id="path4815"
     inkscape:connector-curvature="0" />
  <path
     style="fill:#e87e1f;stroke:#e87e1f;stroke-width:1.50999999"
     d="m 480.36971,112.20465 -48.5586,14.13672 86.03516,56.14258 -13.39258,-58.68164 z"
     id="path4821"
     inkscape:connector-curvature="0" />
  <path
     style="fill:#dc620d;stroke:#dc620d;stroke-width:1.50999999"
     d="m 493.81111,308.34137 66,58 -12.3125,-53.94727 z"
     id="path4823"
     inkscape:connector-curvature="0" />
  <path
     style="fill:#e67115;stroke:#e67115;stroke-width:1.50999999"
     d="m 524.94002,213.56207 -48.12891,19.7793 17,75 36.94922,-69.2793 z"
     id="path4835"
     inkscape:connector-curvature="0" />
  <path
     style="fill:#eb8826;stroke:#eb8826;stroke-width:1.50999999"
     d="m 441.12947,93.306212 -9.31836,33.035158 48.5586,-14.13672 z"
     id="path4839"
     inkscape:connector-curvature="0" />
  <path
     style="fill:#d45606;stroke:#d45606;stroke-width:1.50999999"
     d="m 481.40291,464.66168 -2.5918,0.67969 0.0664,2.48633 z"
     id="path4845"
     inkscape:connector-curvature="0" />
  <path
     style="fill:#db5d0a;stroke:#db5d0a;stroke-width:1.50999999"
     d="m 559.81111,366.34137 -108,16 59.25977,45.11719 z"
     id="path4849"
     inkscape:connector-curvature="0" />
  <path
     style="fill:#ea7a1a;stroke:#ea7a1a;stroke-width:1.50999999"
     d="m 431.81111,126.34137 45,107 48.12891,-19.7793 -7.09375,-31.07812 z"
     id="path4857"
     inkscape:connector-curvature="0" />
  <path
     style="fill:#e0640e;stroke:#e0640e;stroke-width:1.50999999"
     d="m 493.81111,308.34137 -42,74 108,-16 z"
     id="path4859"
     inkscape:connector-curvature="0" />
  <path
     style="fill:#da5d09;stroke:#da5d09;stroke-width:1.50999999"
     d="m 451.81111,382.34137 27,83 2.5918,-0.67969 29.66797,-37.20312 z"
     id="path4863"
     inkscape:connector-curvature="0" />
  <path
     style="fill:#e97215;stroke:#e97215;stroke-width:1.50999999"
     inkscape:connector-curvature="0"
     d="m 476.81146,233.34111 -71,50 88,25 z"
     id="path4875" />
  <path
     style="fill:#ef7f1c;stroke:#ef7f1c;stroke-width:1.50999999"
     inkscape:connector-curvature="0"
     d="m 431.81146,126.34111 -33,97 78,10 z"
     id="path4883" />
  <path
     style="fill:#d05608;stroke:#d05608;stroke-width:1.50999999"
     d="m 419.63533,542.11481 -76.82422,2.22656 10.95703,16.5 h 50.9336 z"
     id="path4887"
     inkscape:connector-curvature="0" />
  <path
     style="fill:#d85a08;stroke:#d85a08;stroke-width:1.50999999"
     d="m 478.81111,465.34137 -73,1 41.55469,41 31.51172,-39.51367 z"
     id="path4889"
     inkscape:connector-curvature="0" />
  <path
     style="fill:#e76d13;stroke:#e76d13;stroke-width:1.50999999"
     inkscape:connector-curvature="0"
     d="m 405.81146,283.34111 46,99 42,-74 z"
     id="path4891" />
  <path
     style="fill:#ea6f14;stroke:#ea6f14;stroke-width:1.50999999"
     inkscape:connector-curvature="0"
     d="m 405.81146,283.34111 -21,63 67,36 z"
     id="path4895" />
  <path
     style="fill:#de600c;stroke:#de600c;stroke-width:1.50999999"
     inkscape:connector-curvature="0"
     d="m 451.81146,382.34111 -46,84 73,-1 z"
     id="path4897" />
  <path
     style="fill:#ce570b;stroke:#ce570b;stroke-width:1.50999999"
     d="m 342.81111,544.34137 0.95117,16.5 h 10.00586 z"
     id="path4901"
     inkscape:connector-curvature="0" />
  <path
     style="fill:#da5c0a;stroke:#da5c0a;stroke-width:1.50999999"
     d="m 405.81111,466.34137 -63,78 76.82422,-2.22656 27.73047,-34.77344 z"
     id="path4903"
     inkscape:connector-curvature="0" />
  <path
     style="fill:#ed7919;stroke:#ed7919;stroke-width:1.50999999"
     inkscape:connector-curvature="0"
     d="m 398.81146,223.34111 7,60 71,-50 z"
     id="path4905" />
  <path
     style="fill:#e56810;stroke:#e56810;stroke-width:1.50999999"
     inkscape:connector-curvature="0"
     d="m 384.81146,346.34111 21,120 46,-84 z"
     id="path4909" />
  <path
     style="fill:#f38f2a;stroke:#f38f2a;stroke-width:1.50999999"
     d="m 391.60408,69.456602 -46.79297,15.88477 87,40.999998 9.31836,-33.035158 z"
     id="path4911"
     inkscape:connector-curvature="0" />
  <path
     style="fill:#f49731;stroke:#f49731;stroke-width:1.50999999"
     d="m 361.11385,54.773012 -16.30274,30.56836 46.79297,-15.88477 z"
     id="path4919"
     inkscape:connector-curvature="0" />
  <path
     style="fill:#f48721;stroke:#f48721;stroke-width:1.50999999"
     inkscape:connector-curvature="0"
     d="m 316.81146,173.34111 82,50 33,-97 z"
     id="path4923" />
  <path
     style="fill:#f68f28;stroke:#f68f28;stroke-width:1.50999999"
     inkscape:connector-curvature="0"
     d="m 344.81146,85.341112 -28,87.999998 115,-47 z"
     id="path4929" />
  <path
     style="fill:#e76b12;stroke:#e76b12;stroke-width:1.50999999"
     inkscape:connector-curvature="0"
     d="m 384.81146,346.34111 -87,109 108,11 z"
     id="path4931" />
  <path
     style="fill:#d45e0d;stroke:#d45e0d;stroke-width:1.50999999"
     d="m 342.81111,544.34137 -8.25,16.5 h 9.20117 z"
     id="path4935"
     inkscape:connector-curvature="0" />
  <path
     style="fill:#ec7416;stroke:#ec7416;stroke-width:1.50999999"
     inkscape:connector-curvature="0"
     d="m 276.81146,378.34111 21,77 87,-109 z"
     id="path4937" />
  <path
     style="fill:#f79d37;stroke:#f79d37;stroke-width:1.50999999"
     d="m 334.91463,42.155823 9.89648,43.185549 16.30274,-30.56836 z"
     id="path4945"
     inkscape:connector-curvature="0" />
  <path
     style="fill:#e2660f;stroke:#e2660f;stroke-width:1.50999999"
     inkscape:connector-curvature="0"
     d="m 297.81146,455.34111 45,89 63,-78 z"
     id="path4951" />
  <path
     style="fill:#f17d1b;stroke:#f17d1b;stroke-width:1.50999999"
     inkscape:connector-curvature="0"
     d="m 398.81146,223.34111 -72,34 79,26 z"
     id="path4953" />
  <path
     style="fill:#f07919;stroke:#f07919;stroke-width:1.50999999"
     inkscape:connector-curvature="0"
     d="m 326.81146,257.34111 58,89 21,-63 z"
     id="path4955" />
  <path
     style="fill:#d9620e;stroke:#d9620e;stroke-width:1.50999999"
     d="m 342.81111,544.34137 -23.25,16.5 h 15 z"
     id="path4957"
     inkscape:connector-curvature="0" />
  <path
     style="fill:#f5851f;stroke:#f5851f;stroke-width:1.50999999"
     inkscape:connector-curvature="0"
     d="m 316.81146,173.34111 10,84 72,-34 z"
     id="path4965" />
  <path
     style="fill:#f8952c;stroke:#f8952c;stroke-width:1.50999999"
     inkscape:connector-curvature="0"
     d="m 327.81146,87.341112 -11,85.999998 28,-87.999998 z"
     id="path4971" />
  <path
     style="fill:#f07a19;stroke:#f07a19;stroke-width:1.50999999"
     inkscape:connector-curvature="0"
     d="m 326.81146,257.34111 -50,121 108,-32 z"
     id="path4973" />
  <path
     style="fill:#f89c32;stroke:#f89c32;stroke-width:1.50999999"
     d="m 325.26814,37.511292 2.54297,49.83008 17,-2 -9.89648,-43.185549 z"
     id="path4975"
     inkscape:connector-curvature="0" />
  <path
     style="fill:#e1660f;stroke:#e1660f;stroke-width:1.50999999"
     d="m 297.81111,455.34137 13.30664,105.5 h 8.44336 l 23.25,-16.5 z"
     id="path4987"
     inkscape:connector-curvature="0" />
  <path
     style="fill:#e46d13;stroke:#e46d13;stroke-width:1.50999999"
     d="m 297.81111,455.34137 -58,24 67.44922,81.5 h 3.85742 z"
     id="path4989"
     inkscape:connector-curvature="0" />
  <path
     style="fill:#f5851f;stroke:#f5851f;stroke-width:1.50999999"
     inkscape:connector-curvature="0"
     d="m 197.81146,279.34111 79,99 50,-121 z"
     id="path4991" />
  <path
     style="fill:#feab3b;stroke:#feab3b;stroke-width:1.50999999"
     d="m 280.31502,15.862854 -104.21875,50.189458 5.71484,14.28906 99.30664,-64.091799 z"
     id="path5001"
     inkscape:connector-curvature="0" />
  <path
     style="fill:#f88b22;stroke:#f88b22;stroke-width:1.50999999"
     inkscape:connector-curvature="0"
     d="m 316.81146,173.34111 -119,106 129,-22 z"
     id="path5005" />
  <path
     style="fill:#fba336;stroke:#fba336;stroke-width:1.50999999"
     d="m 281.11775,16.249573 -99.30664,64.091799 146,7 -2.54297,-49.83008 z"
     id="path5007"
     inkscape:connector-curvature="0" />
  <path
     style="fill:#fb9b2f;stroke:#fb9b2f;stroke-width:1.50999999"
     inkscape:connector-curvature="0"
     d="m 181.81146,80.341112 135,92.999998 11,-85.999998 z"
     id="path5009" />
  <path
     style="fill:#fc9527;stroke:#fc9527;stroke-width:1.50999999"
     inkscape:connector-curvature="0"
     d="m 171.81146,173.34111 26,106 119,-106 z"
     id="path5015" />
  <path
     style="fill:#fe9e2f;stroke:#fe9e2f;stroke-width:1.50999999"
     inkscape:connector-curvature="0"
     d="m 181.81146,80.341112 -10,92.999998 h 145 z"
     id="path5017" />
  <path
     style="fill:#e16c13;stroke:#e16c13;stroke-width:1.50999999"
     d="m 239.81111,479.34137 -24.44922,81.5 h 91.89844 z"
     id="path5035"
     inkscape:connector-curvature="0" />
  <path
     style="fill:#ed7818;stroke:#ed7818;stroke-width:1.50999999"
     inkscape:connector-curvature="0"
     d="m 276.81146,378.34111 -59,35 80,42 z"
     id="path5037" />
  <path
     style="fill:#eb7617;stroke:#eb7617;stroke-width:1.50999999"
     inkscape:connector-curvature="0"
     d="m 217.81146,413.34111 22,66 58,-24 z"
     id="path5041" />
  <path
     style="fill:#f4831e;stroke:#f4831e;stroke-width:1.50999999"
     inkscape:connector-curvature="0"
     d="m 197.81146,279.34111 20,134 59,-35 z"
     id="path5045" />
  <path
     style="fill:#f68821;stroke:#f68821;stroke-width:1.50999999"
     inkscape:connector-curvature="0"
     d="m 197.81146,279.34111 -65,110 85,24 z"
     id="path5049" />
  <path
     style="fill:#e57417;stroke:#e57417;stroke-width:1.50999999"
     d="m 239.81111,479.34137 -103.16992,57.3164 15.94727,19.99805 5.02343,4.18555 h 57.75 z"
     id="path5055"
     inkscape:connector-curvature="0" />
  <path
     style="fill:#e87b1c;stroke:#e87b1c;stroke-width:1.50999999"
     d="m 239.81111,479.34137 -103,17 -4.11328,35.37304 3.94336,4.94336 z"
     id="path5057"
     inkscape:connector-curvature="0" />
  <path
     style="fill:#ec7b1a;stroke:#ec7b1a;stroke-width:1.50999999"
     inkscape:connector-curvature="0"
     d="m 217.81146,413.34111 -81,83 103,-17 z"
     id="path5059" />
  <path
     style="fill:#fd9c2d;stroke:#fd9c2d;stroke-width:1.50999999"
     inkscape:connector-curvature="0"
     d="m 171.81146,173.34111 -52,25 78,81 z"
     id="path5065" />
  <path
     style="fill:#ef8420;stroke:#ef8420;stroke-width:1.50999999"
     inkscape:connector-curvature="0"
     d="m 132.81146,389.34111 4,107 81,-83 z"
     id="path5069" />
  <path
     style="fill:#ffaa38;stroke:#ffaa38;stroke-width:1.50999999"
     inkscape:connector-curvature="0"
     d="m 107.81146,107.34111 64,66 10,-92.999998 z"
     id="path5079" />
  <path
     style="fill:#f9942a;stroke:#f9942a;stroke-width:1.50999999"
     inkscape:connector-curvature="0"
     d="m 48.811461,288.34111 83.999999,101 65,-110 z"
     id="path5085" />
  <path
     style="fill:#db771e;stroke:#db771e;stroke-width:1.50999999"
     d="m 152.58846,556.65582 3.33789,4.18555 h 1.68554 z"
     id="path5087"
     inkscape:connector-curvature="0" />
  <path
     style="fill:#fb9d30;stroke:#fb9d30;stroke-width:1.50999999"
     inkscape:connector-curvature="0"
     d="m 72.811461,249.34111 -24,39 148.999999,-9 z"
     id="path5089" />
  <path
     style="fill:#fd9d2f;stroke:#fd9d2f;stroke-width:1.50999999"
     inkscape:connector-curvature="0"
     d="m 119.81146,198.34111 -46.999999,51 124.999999,30 z"
     id="path5091" />
  <path
     style="fill:#feaf3d;stroke:#feaf3d;stroke-width:1.50999999"
     d="m 176.09627,66.052312 -55.80664,26.875 -12.47852,14.414058 74,-26.999998 z"
     id="path5097"
     inkscape:connector-curvature="0" />
  <path
     style="fill:#ffa736;stroke:#ffa736;stroke-width:1.50999999"
     inkscape:connector-curvature="0"
     d="m 107.81146,107.34111 12,91 52,-25 z"
     id="path5101" />
  <path
     style="fill:#ffb744;stroke:#ffb744;stroke-width:1.50999999"
     d="m 120.28963,92.927312 -15.20117,7.320308 2.72265,7.09375 z"
     id="path5107"
     inkscape:connector-curvature="0" />
  <path
     style="fill:#febb47;stroke:#febb47;stroke-width:1.50999999"
     d="m 105.08846,100.24762 -5.259769,2.5332 7.982419,4.56055 z"
     id="path5111"
     inkscape:connector-curvature="0" />
  <path
     style="fill:#f79a31;stroke:#f79a31;stroke-width:1.50999999"
     inkscape:connector-curvature="0"
     d="m 48.811461,288.34111 -35,58 118.999999,43 z"
     id="path5115" />
  <path
     style="fill:#e88123;stroke:#e88123;stroke-width:1.50999999"
     d="m 136.81111,496.34137 -22.89258,11.82422 18.7793,23.54882 z"
     id="path5117"
     inkscape:connector-curvature="0" />
  <path
     style="fill:#f08d29;stroke:#f08d29;stroke-width:1.50999999"
     d="m 132.81111,389.34137 -90.478513,29.05859 44.263672,55.50586 50.214841,22.43555 z"
     id="path5119"
     inkscape:connector-curvature="0" />
  <path
     style="fill:#eb8b2a;stroke:#eb8b2a;stroke-width:1.50999999"
     d="m 86.596269,473.90582 27.322261,34.25977 22.89258,-11.82422 z"
     id="path5121"
     inkscape:connector-curvature="0" />
  <path
     style="fill:#f49730;stroke:#f49730;stroke-width:1.50999999"
     d="M 13.811113,346.34137 7.8482215,375.15973 42.332597,418.39996 132.81111,389.34137 Z"
     id="path5125"
     inkscape:connector-curvature="0" />
  <path
     style="fill:#ffac3a;stroke:#ffac3a;stroke-width:1.50999999"
     d="m 107.81111,107.34137 -64.121091,71.16797 -6.355469,27.83984 82.47656,-8.00781 z"
     id="path5127"
     inkscape:connector-curvature="0" />
  <path
     style="fill:#fda837;stroke:#fda837;stroke-width:1.50999999"
     d="m 119.81111,198.34137 -82.47656,8.00781 -3.328125,14.58203 38.804688,28.41016 z"
     id="path5139"
     inkscape:connector-curvature="0" />
  <path
     style="fill:#ffb441;stroke:#ffb441;stroke-width:1.50999999"
     d="M 99.828691,102.78082 56.176347,123.80231 43.690019,178.50934 107.81111,107.34137 Z"
     id="path5143"
     inkscape:connector-curvature="0" />
  <path
     style="fill:#fca738;stroke:#fca738;stroke-width:1.50999999"
     d="m 34.006425,220.93121 -4.417968,19.35547 19.222656,48.05469 24,-39 z"
     id="path5161"
     inkscape:connector-curvature="0" />
  <path
     style="fill:#fcaa3f;stroke:#fcaa3f;stroke-width:1.50999999"
     d="m 29.588457,240.28668 -12.712891,55.69727 31.935547,-7.64258 z"
     id="path5181"
     inkscape:connector-curvature="0" />
  <path
     style="fill:#faa43d;stroke:#faa43d;stroke-width:1.50999999"
     d="m 48.811113,288.34137 -31.935547,7.64258 -10.8437505,47.51172 7.7792975,2.8457 z"
     id="path5183"
     inkscape:connector-curvature="0" />
  <path
     style="fill:#f79f3d;stroke:#f79f3d;stroke-width:1.50999999"
     d="m 13.811113,346.34137 -8.4785163,0.2168 -4.51562498,19.7832 7.03124978,8.81836 z"
     id="path5205"
     inkscape:connector-curvature="0" />
  <path
     style="fill:#faa544;stroke:#faa544;stroke-width:1.50999999"
     d="m 6.0318155,343.49567 -0.6992188,3.0625 8.4785163,-0.2168 z"
     id="path5207"
     inkscape:connector-curvature="0" />
  <g
     inkscape:groupmode="layer"
     id="layer2"
     inkscape:label="Layer 1"
     transform="translate(-3.5463095,-46.613708)"
     style="opacity:1" />
</svg>
